<svg width="43" height="48" viewBox="0 0 43 48" fill="none" xmlns="http://www.w3.org/2000/svg">
<g clip-path="url(#clip0_48_46)">
<path d="M34.2052 20.7933L21.9978 23.4807V7.06299C21.9978 3.16219 25.1473 0 29.0326 0H35.9622C39.8474 0 42.997 3.16219 42.997 7.06299V9.81961C42.997 15.0954 39.3384 19.6623 34.2052 20.7933Z" fill="#0A76FD"/>
<path d="M33.0557 22.0859L21.9978 24.5194V40.937C21.9978 44.8378 25.1473 48 29.0326 48H35.9622C39.8474 48 42.997 44.8378 42.997 40.937V30.115C42.997 24.8656 38.1626 20.9582 33.0557 22.0826V22.0859Z" fill="#0A76FD"/>
<path d="M6.79172 0C3.04117 0 0 3.05338 0 6.81899V41.181C0 44.9466 3.04117 48 6.79172 48H14.2074C17.958 48 20.9992 44.9466 20.9992 41.181V6.81899C21.0024 3.05338 17.9613 0 14.2074 0H6.79172Z" fill="#0A76FD"/>
</g>
<defs>
<clipPath id="clip0_48_46">
<rect width="43" height="48" fill="white"/>
</clipPath>
</defs>
</svg>
